<?xml version="1.0" encoding="UTF-8" standalone="no"?>
<!DOCTYPE svg PUBLIC "-//W3C//DTD SVG 1.1//EN"
 "http://www.w3.org/Graphics/SVG/1.1/DTD/svg11.dtd">
<!-- Generated by graphviz version 8.1.0 (20230707.0739)
 -->
<!-- Title: dependency&#45;cruiser output Pages: 1 -->
<svg width="258pt" height="1396pt"
 viewBox="0.00 0.00 258.25 1396.00" xmlns="http://www.w3.org/2000/svg" xmlns:xlink="http://www.w3.org/1999/xlink">
<g id="graph0" class="graph" transform="scale(1 1) rotate(0) translate(4 1392)">
<title>dependency&#45;cruiser output</title>
<polygon fill="white" stroke="none" points="-4,4 -4,-1392 254.25,-1392 254.25,4 -4,4"/>
<g id="clust1" class="cluster">
<title>cluster_src</title>
<path fill="#ffffff" stroke="black" stroke-width="2" d="M20,-8C20,-8 230.25,-8 230.25,-8 236.25,-8 242.25,-14 242.25,-20 242.25,-20 242.25,-1368 242.25,-1368 242.25,-1374 236.25,-1380 230.25,-1380 230.25,-1380 20,-1380 20,-1380 14,-1380 8,-1374 8,-1368 8,-1368 8,-20 8,-20 8,-14 14,-8 20,-8"/>
<text text-anchor="middle" x="125.12" y="-1367.45" font-family="Helvetica,sans-Serif" font-weight="bold" font-size="9.00">src</text>
</g>
<g id="clust2" class="cluster">
<title>cluster_src/assets</title>
<path fill="#ffffff" stroke="black" stroke-width="2" d="M154.25,-42C154.25,-42 222.25,-42 222.25,-42 228.25,-42 234.25,-48 234.25,-54 234.25,-54 234.25,-112 234.25,-112 234.25,-118 228.25,-124 222.25,-124 222.25,-124 154.25,-124 154.25,-124 148.25,-124 142.25,-118 142.25,-112 142.25,-112 142.25,-54 142.25,-54 142.25,-48 148.25,-42 154.25,-42"/>
<text text-anchor="middle" x="188.25" y="-111.45" font-family="Helvetica,sans-Serif" font-weight="bold" font-size="9.00">assets</text>
</g>
<g id="clust3" class="cluster">
<title>cluster_src/components</title>
<path fill="#ffffff" stroke="black" stroke-width="2" d="M28,-882C28,-882 122.25,-882 122.25,-882 128.25,-882 134.25,-888 134.25,-894 134.25,-894 134.25,-1342 134.25,-1342 134.25,-1348 128.25,-1354 122.25,-1354 122.25,-1354 28,-1354 28,-1354 22,-1354 16,-1348 16,-1342 16,-1342 16,-894 16,-894 16,-888 22,-882 28,-882"/>
<text text-anchor="middle" x="75.12" y="-1341.45" font-family="Helvetica,sans-Serif" font-weight="bold" font-size="9.00">components</text>
</g>
<g id="clust4" class="cluster">
<title>cluster_src/helpers</title>
<path fill="#ffffff" stroke="black" stroke-width="2" d="M34.75,-642C34.75,-642 115.5,-642 115.5,-642 121.5,-642 127.5,-648 127.5,-654 127.5,-654 127.5,-862 127.5,-862 127.5,-868 121.5,-874 115.5,-874 115.5,-874 34.75,-874 34.75,-874 28.75,-874 22.75,-868 22.75,-862 22.75,-862 22.75,-654 22.75,-654 22.75,-648 28.75,-642 34.75,-642"/>
<text text-anchor="middle" x="75.12" y="-861.45" font-family="Helvetica,sans-Serif" font-weight="bold" font-size="9.00">helpers</text>
</g>
<g id="clust5" class="cluster">
<title>cluster_src/router</title>
<path fill="#ffffff" stroke="black" stroke-width="2" d="M165.25,-132C165.25,-132 211.25,-132 211.25,-132 217.25,-132 223.25,-138 223.25,-144 223.25,-144 223.25,-172 223.25,-172 223.25,-178 217.25,-184 211.25,-184 211.25,-184 165.25,-184 165.25,-184 159.25,-184 153.25,-178 153.25,-172 153.25,-172 153.25,-144 153.25,-144 153.25,-138 159.25,-132 165.25,-132"/>
<text text-anchor="middle" x="188.25" y="-171.45" font-family="Helvetica,sans-Serif" font-weight="bold" font-size="9.00">router</text>
</g>
<g id="clust6" class="cluster">
<title>cluster_src/stores</title>
<path fill="#ffffff" stroke="black" stroke-width="2" d="M39.25,-432C39.25,-432 111,-432 111,-432 117,-432 123,-438 123,-444 123,-444 123,-622 123,-622 123,-628 117,-634 111,-634 111,-634 39.25,-634 39.25,-634 33.25,-634 27.25,-628 27.25,-622 27.25,-622 27.25,-444 27.25,-444 27.25,-438 33.25,-432 39.25,-432"/>
<text text-anchor="middle" x="75.12" y="-621.45" font-family="Helvetica,sans-Serif" font-weight="bold" font-size="9.00">stores</text>
</g>
<g id="clust7" class="cluster">
<title>cluster_src/types</title>
<path fill="#ffffff" stroke="black" stroke-width="2" d="M38.88,-222C38.88,-222 111.38,-222 111.38,-222 117.38,-222 123.38,-228 123.38,-234 123.38,-234 123.38,-412 123.38,-412 123.38,-418 117.38,-424 111.38,-424 111.38,-424 38.88,-424 38.88,-424 32.88,-424 26.88,-418 26.88,-412 26.88,-412 26.88,-234 26.88,-234 26.88,-228 32.88,-222 38.88,-222"/>
<text text-anchor="middle" x="75.12" y="-411.45" font-family="Helvetica,sans-Serif" font-weight="bold" font-size="9.00">types</text>
</g>
<g id="clust8" class="cluster">
<title>cluster_src/views</title>
<path fill="#ffffff" stroke="black" stroke-width="2" d="M40,-42C40,-42 110.25,-42 110.25,-42 116.25,-42 122.25,-48 122.25,-54 122.25,-54 122.25,-202 122.25,-202 122.25,-208 116.25,-214 110.25,-214 110.25,-214 40,-214 40,-214 34,-214 28,-208 28,-202 28,-202 28,-54 28,-54 28,-48 34,-42 40,-42"/>
<text text-anchor="middle" x="75.12" y="-201.45" font-family="Helvetica,sans-Serif" font-weight="bold" font-size="9.00">views</text>
</g>
<!-- src/App.vue -->
<g id="node1" class="node">
<title>src/App.vue</title>
<g id="a_node1"><a xlink:href="src/App.vue" xlink:title="App.vue">
<path fill="#41f083" stroke="black" d="M209.33,-33.88C209.33,-33.88 167.17,-33.88 167.17,-33.88 164.21,-33.88 161.25,-30.92 161.25,-27.96 161.25,-27.96 161.25,-22.04 161.25,-22.04 161.25,-19.08 164.21,-16.12 167.17,-16.12 167.17,-16.12 209.33,-16.12 209.33,-16.12 212.29,-16.12 215.25,-19.08 215.25,-22.04 215.25,-22.04 215.25,-27.96 215.25,-27.96 215.25,-30.92 212.29,-33.88 209.33,-33.88"/>
<text text-anchor="start" x="171.38" y="-21.32" font-family="Helvetica,sans-Serif" font-size="9.00">App.vue</text>
</a>
</g>
</g>
<!-- src/assets/vip&#45;custom.css -->
<g id="node2" class="node">
<title>src/assets/vip&#45;custom.css</title>
<g id="a_node2"><a xlink:href="src/assets/vip-custom.css" xlink:title="vip&#45;custom.css">
<path fill="#ffffcc" stroke="black" d="M220.33,-97.88C220.33,-97.88 156.17,-97.88 156.17,-97.88 153.21,-97.88 150.25,-94.92 150.25,-91.96 150.25,-91.96 150.25,-86.04 150.25,-86.04 150.25,-83.08 153.21,-80.12 156.17,-80.12 156.17,-80.12 220.33,-80.12 220.33,-80.12 223.29,-80.12 226.25,-83.08 226.25,-86.04 226.25,-86.04 226.25,-91.96 226.25,-91.96 226.25,-94.92 223.29,-97.88 220.33,-97.88"/>
<text text-anchor="start" x="158.25" y="-85.33" font-family="Helvetica,sans-Serif" font-size="9.00">vip&#45;custom.css</text>
</a>
</g>
</g>
<!-- src/assets/vip.css -->
<g id="node3" class="node">
<title>src/assets/vip.css</title>
<g id="a_node3"><a xlink:href="src/assets/vip.css" xlink:title="vip.css">
<path fill="#ffffcc" stroke="black" d="M209.33,-67.88C209.33,-67.88 167.17,-67.88 167.17,-67.88 164.21,-67.88 161.25,-64.92 161.25,-61.96 161.25,-61.96 161.25,-56.04 161.25,-56.04 161.25,-53.08 164.21,-50.12 167.17,-50.12 167.17,-50.12 209.33,-50.12 209.33,-50.12 212.29,-50.12 215.25,-53.08 215.25,-56.04 215.25,-56.04 215.25,-61.96 215.25,-61.96 215.25,-64.92 212.29,-67.88 209.33,-67.88"/>
<text text-anchor="start" x="174.38" y="-55.33" font-family="Helvetica,sans-Serif" font-size="9.00">vip.css</text>
</a>
</g>
</g>
<!-- src/components/Banner.vue -->
<g id="node4" class="node">
<title>src/components/Banner.vue</title>
<g id="a_node4"><a xlink:href="src/components/Banner.vue" xlink:title="no&#45;orphans">
<path fill="#ccffcc" stroke="orange" d="M100.83,-1327.88C100.83,-1327.88 49.42,-1327.88 49.42,-1327.88 46.46,-1327.88 43.5,-1324.92 43.5,-1321.96 43.5,-1321.96 43.5,-1316.04 43.5,-1316.04 43.5,-1313.08 46.46,-1310.12 49.42,-1310.12 49.42,-1310.12 100.83,-1310.12 100.83,-1310.12 103.79,-1310.12 106.75,-1313.08 106.75,-1316.04 106.75,-1316.04 106.75,-1321.96 106.75,-1321.96 106.75,-1324.92 103.79,-1327.88 100.83,-1327.88"/>
<text text-anchor="start" x="51.5" y="-1315.33" font-family="Helvetica,sans-Serif" font-size="9.00" fill="orange">Banner.vue</text>
</a>
</g>
</g>
<!-- src/components/BinCode.vue -->
<g id="node5" class="node">
<title>src/components/BinCode.vue</title>
<g id="a_node5"><a xlink:href="src/components/BinCode.vue" xlink:title="no&#45;orphans">
<path fill="#ccffcc" stroke="orange" d="M103.83,-1297.88C103.83,-1297.88 46.42,-1297.88 46.42,-1297.88 43.46,-1297.88 40.5,-1294.92 40.5,-1291.96 40.5,-1291.96 40.5,-1286.04 40.5,-1286.04 40.5,-1283.08 43.46,-1280.12 46.42,-1280.12 46.42,-1280.12 103.83,-1280.12 103.83,-1280.12 106.79,-1280.12 109.75,-1283.08 109.75,-1286.04 109.75,-1286.04 109.75,-1291.96 109.75,-1291.96 109.75,-1294.92 106.79,-1297.88 103.83,-1297.88"/>
<text text-anchor="start" x="48.5" y="-1285.33" font-family="Helvetica,sans-Serif" font-size="9.00" fill="orange">BinCode.vue</text>
</a>
</g>
</g>
<!-- src/components/ButtonGroupLink.vue -->
<g id="node6" class="node">
<title>src/components/ButtonGroupLink.vue</title>
<g id="a_node6"><a xlink:href="src/components/ButtonGroupLink.vue" xlink:title="no&#45;orphans">
<path fill="#ccffcc" stroke="orange" d="M120.33,-1267.88C120.33,-1267.88 29.92,-1267.88 29.92,-1267.88 26.96,-1267.88 24,-1264.92 24,-1261.96 24,-1261.96 24,-1256.04 24,-1256.04 24,-1253.08 26.96,-1250.12 29.92,-1250.12 29.92,-1250.12 120.33,-1250.12 120.33,-1250.12 123.29,-1250.12 126.25,-1253.08 126.25,-1256.04 126.25,-1256.04 126.25,-1261.96 126.25,-1261.96 126.25,-1264.92 123.29,-1267.88 120.33,-1267.88"/>
<text text-anchor="start" x="32" y="-1255.33" font-family="Helvetica,sans-Serif" font-size="9.00" fill="orange">ButtonGroupLink.vue</text>
</a>
</g>
</g>
<!-- src/components/CallToAction.vue -->
<g id="node7" class="node">
<title>src/components/CallToAction.vue</title>
<g id="a_node7"><a xlink:href="src/components/CallToAction.vue" xlink:title="no&#45;orphans">
<path fill="#ccffcc" stroke="orange" d="M111.71,-1237.88C111.71,-1237.88 38.54,-1237.88 38.54,-1237.88 35.58,-1237.88 32.62,-1234.92 32.62,-1231.96 32.62,-1231.96 32.62,-1226.04 32.62,-1226.04 32.62,-1223.08 35.58,-1220.12 38.54,-1220.12 38.54,-1220.12 111.71,-1220.12 111.71,-1220.12 114.67,-1220.12 117.62,-1223.08 117.62,-1226.04 117.62,-1226.04 117.62,-1231.96 117.62,-1231.96 117.62,-1234.92 114.67,-1237.88 111.71,-1237.88"/>
<text text-anchor="start" x="40.62" y="-1225.33" font-family="Helvetica,sans-Serif" font-size="9.00" fill="orange">CallToAction.vue</text>
</a>
</g>
</g>
<!-- src/components/Container.vue -->
<g id="node8" class="node">
<title>src/components/Container.vue</title>
<g id="a_node8"><a xlink:href="src/components/Container.vue" xlink:title="no&#45;orphans">
<path fill="#ccffcc" stroke="orange" d="M106.08,-1207.88C106.08,-1207.88 44.17,-1207.88 44.17,-1207.88 41.21,-1207.88 38.25,-1204.92 38.25,-1201.96 38.25,-1201.96 38.25,-1196.04 38.25,-1196.04 38.25,-1193.08 41.21,-1190.12 44.17,-1190.12 44.17,-1190.12 106.08,-1190.12 106.08,-1190.12 109.04,-1190.12 112,-1193.08 112,-1196.04 112,-1196.04 112,-1201.96 112,-1201.96 112,-1204.92 109.04,-1207.88 106.08,-1207.88"/>
<text text-anchor="start" x="46.25" y="-1195.33" font-family="Helvetica,sans-Serif" font-size="9.00" fill="orange">Container.vue</text>
</a>
</g>
</g>
<!-- src/components/Footer.vue -->
<g id="node9" class="node">
<title>src/components/Footer.vue</title>
<g id="a_node9"><a xlink:href="src/components/Footer.vue" xlink:title="no&#45;orphans">
<path fill="#ccffcc" stroke="orange" d="M98.96,-1177.88C98.96,-1177.88 51.29,-1177.88 51.29,-1177.88 48.33,-1177.88 45.38,-1174.92 45.38,-1171.96 45.38,-1171.96 45.38,-1166.04 45.38,-1166.04 45.38,-1163.08 48.33,-1160.12 51.29,-1160.12 51.29,-1160.12 98.96,-1160.12 98.96,-1160.12 101.92,-1160.12 104.88,-1163.08 104.88,-1166.04 104.88,-1166.04 104.88,-1171.96 104.88,-1171.96 104.88,-1174.92 101.92,-1177.88 98.96,-1177.88"/>
<text text-anchor="start" x="53.38" y="-1165.33" font-family="Helvetica,sans-Serif" font-size="9.00" fill="orange">Footer.vue</text>
</a>
</g>
</g>
<!-- src/components/Form.vue -->
<g id="node10" class="node">
<title>src/components/Form.vue</title>
<g id="a_node10"><a xlink:href="src/components/Form.vue" xlink:title="no&#45;orphans">
<path fill="#ccffcc" stroke="orange" d="M96.33,-1147.88C96.33,-1147.88 53.92,-1147.88 53.92,-1147.88 50.96,-1147.88 48,-1144.92 48,-1141.96 48,-1141.96 48,-1136.04 48,-1136.04 48,-1133.08 50.96,-1130.12 53.92,-1130.12 53.92,-1130.12 96.33,-1130.12 96.33,-1130.12 99.29,-1130.12 102.25,-1133.08 102.25,-1136.04 102.25,-1136.04 102.25,-1141.96 102.25,-1141.96 102.25,-1144.92 99.29,-1147.88 96.33,-1147.88"/>
<text text-anchor="start" x="56" y="-1135.33" font-family="Helvetica,sans-Serif" font-size="9.00" fill="orange">Form.vue</text>
</a>
</g>
</g>
<!-- src/components/Header.vue -->
<g id="node11" class="node">
<title>src/components/Header.vue</title>
<g id="a_node11"><a xlink:href="src/components/Header.vue" xlink:title="no&#45;orphans">
<path fill="#ccffcc" stroke="orange" d="M101.21,-1117.88C101.21,-1117.88 49.04,-1117.88 49.04,-1117.88 46.08,-1117.88 43.12,-1114.92 43.12,-1111.96 43.12,-1111.96 43.12,-1106.04 43.12,-1106.04 43.12,-1103.08 46.08,-1100.12 49.04,-1100.12 49.04,-1100.12 101.21,-1100.12 101.21,-1100.12 104.17,-1100.12 107.12,-1103.08 107.12,-1106.04 107.12,-1106.04 107.12,-1111.96 107.12,-1111.96 107.12,-1114.92 104.17,-1117.88 101.21,-1117.88"/>
<text text-anchor="start" x="51.12" y="-1105.33" font-family="Helvetica,sans-Serif" font-size="9.00" fill="orange">Header.vue</text>
</a>
</g>
</g>
<!-- src/components/Loading.vue -->
<g id="node12" class="node">
<title>src/components/Loading.vue</title>
<g id="a_node12"><a xlink:href="src/components/Loading.vue" xlink:title="no&#45;orphans">
<path fill="#ccffcc" stroke="orange" d="M102.71,-1087.88C102.71,-1087.88 47.54,-1087.88 47.54,-1087.88 44.58,-1087.88 41.62,-1084.92 41.62,-1081.96 41.62,-1081.96 41.62,-1076.04 41.62,-1076.04 41.62,-1073.08 44.58,-1070.12 47.54,-1070.12 47.54,-1070.12 102.71,-1070.12 102.71,-1070.12 105.67,-1070.12 108.62,-1073.08 108.62,-1076.04 108.62,-1076.04 108.62,-1081.96 108.62,-1081.96 108.62,-1084.92 105.67,-1087.88 102.71,-1087.88"/>
<text text-anchor="start" x="49.62" y="-1075.33" font-family="Helvetica,sans-Serif" font-size="9.00" fill="orange">Loading.vue</text>
</a>
</g>
</g>
<!-- src/components/Password.vue -->
<g id="node13" class="node">
<title>src/components/Password.vue</title>
<g id="a_node13"><a xlink:href="src/components/Password.vue" xlink:title="no&#45;orphans">
<path fill="#ccffcc" stroke="orange" d="M106.08,-1057.88C106.08,-1057.88 44.17,-1057.88 44.17,-1057.88 41.21,-1057.88 38.25,-1054.92 38.25,-1051.96 38.25,-1051.96 38.25,-1046.04 38.25,-1046.04 38.25,-1043.08 41.21,-1040.12 44.17,-1040.12 44.17,-1040.12 106.08,-1040.12 106.08,-1040.12 109.04,-1040.12 112,-1043.08 112,-1046.04 112,-1046.04 112,-1051.96 112,-1051.96 112,-1054.92 109.04,-1057.88 106.08,-1057.88"/>
<text text-anchor="start" x="46.25" y="-1045.33" font-family="Helvetica,sans-Serif" font-size="9.00" fill="orange">Password.vue</text>
</a>
</g>
</g>
<!-- src/components/Product.vue -->
<g id="node14" class="node">
<title>src/components/Product.vue</title>
<g id="a_node14"><a xlink:href="src/components/Product.vue" xlink:title="no&#45;orphans">
<path fill="#ccffcc" stroke="orange" d="M101.58,-1027.88C101.58,-1027.88 48.67,-1027.88 48.67,-1027.88 45.71,-1027.88 42.75,-1024.92 42.75,-1021.96 42.75,-1021.96 42.75,-1016.04 42.75,-1016.04 42.75,-1013.08 45.71,-1010.12 48.67,-1010.12 48.67,-1010.12 101.58,-1010.12 101.58,-1010.12 104.54,-1010.12 107.5,-1013.08 107.5,-1016.04 107.5,-1016.04 107.5,-1021.96 107.5,-1021.96 107.5,-1024.92 104.54,-1027.88 101.58,-1027.88"/>
<text text-anchor="start" x="50.75" y="-1015.33" font-family="Helvetica,sans-Serif" font-size="9.00" fill="orange">Product.vue</text>
</a>
</g>
</g>
<!-- src/components/ProductModal.vue -->
<g id="node15" class="node">
<title>src/components/ProductModal.vue</title>
<g id="a_node15"><a xlink:href="src/components/ProductModal.vue" xlink:title="no&#45;orphans">
<path fill="#ccffcc" stroke="orange" d="M114.33,-997.88C114.33,-997.88 35.92,-997.88 35.92,-997.88 32.96,-997.88 30,-994.92 30,-991.96 30,-991.96 30,-986.04 30,-986.04 30,-983.08 32.96,-980.12 35.92,-980.12 35.92,-980.12 114.33,-980.12 114.33,-980.12 117.29,-980.12 120.25,-983.08 120.25,-986.04 120.25,-986.04 120.25,-991.96 120.25,-991.96 120.25,-994.92 117.29,-997.88 114.33,-997.88"/>
<text text-anchor="start" x="38" y="-985.33" font-family="Helvetica,sans-Serif" font-size="9.00" fill="orange">ProductModal.vue</text>
</a>
</g>
</g>
<!-- src/components/ProductSlider.vue -->
<g id="node16" class="node">
<title>src/components/ProductSlider.vue</title>
<g id="a_node16"><a xlink:href="src/components/ProductSlider.vue" xlink:title="no&#45;orphans">
<path fill="#ccffcc" stroke="orange" d="M113.58,-967.88C113.58,-967.88 36.67,-967.88 36.67,-967.88 33.71,-967.88 30.75,-964.92 30.75,-961.96 30.75,-961.96 30.75,-956.04 30.75,-956.04 30.75,-953.08 33.71,-950.12 36.67,-950.12 36.67,-950.12 113.58,-950.12 113.58,-950.12 116.54,-950.12 119.5,-953.08 119.5,-956.04 119.5,-956.04 119.5,-961.96 119.5,-961.96 119.5,-964.92 116.54,-967.88 113.58,-967.88"/>
<text text-anchor="start" x="38.75" y="-955.33" font-family="Helvetica,sans-Serif" font-size="9.00" fill="orange">ProductSlider.vue</text>
</a>
</g>
</g>
<!-- src/components/ProductTab.vue -->
<g id="node17" class="node">
<title>src/components/ProductTab.vue</title>
<g id="a_node17"><a xlink:href="src/components/ProductTab.vue" xlink:title="no&#45;orphans">
<path fill="#ccffcc" stroke="orange" d="M109.08,-937.88C109.08,-937.88 41.17,-937.88 41.17,-937.88 38.21,-937.88 35.25,-934.92 35.25,-931.96 35.25,-931.96 35.25,-926.04 35.25,-926.04 35.25,-923.08 38.21,-920.12 41.17,-920.12 41.17,-920.12 109.08,-920.12 109.08,-920.12 112.04,-920.12 115,-923.08 115,-926.04 115,-926.04 115,-931.96 115,-931.96 115,-934.92 112.04,-937.88 109.08,-937.88"/>
<text text-anchor="start" x="43.25" y="-925.33" font-family="Helvetica,sans-Serif" font-size="9.00" fill="orange">ProductTab.vue</text>
</a>
</g>
</g>
<!-- src/components/Products.vue -->
<g id="node18" class="node">
<title>src/components/Products.vue</title>
<g id="a_node18"><a xlink:href="src/components/Products.vue" xlink:title="no&#45;orphans">
<path fill="#ccffcc" stroke="orange" d="M103.83,-907.88C103.83,-907.88 46.42,-907.88 46.42,-907.88 43.46,-907.88 40.5,-904.92 40.5,-901.96 40.5,-901.96 40.5,-896.04 40.5,-896.04 40.5,-893.08 43.46,-890.12 46.42,-890.12 46.42,-890.12 103.83,-890.12 103.83,-890.12 106.79,-890.12 109.75,-893.08 109.75,-896.04 109.75,-896.04 109.75,-901.96 109.75,-901.96 109.75,-904.92 106.79,-907.88 103.83,-907.88"/>
<text text-anchor="start" x="48.5" y="-895.33" font-family="Helvetica,sans-Serif" font-size="9.00" fill="orange">Products.vue</text>
</a>
</g>
</g>
<!-- src/helpers/checkQuantity.ts -->
<g id="node19" class="node">
<title>src/helpers/checkQuantity.ts</title>
<g id="a_node19"><a xlink:href="src/helpers/checkQuantity.ts" xlink:title="checkQuantity.ts">
<path fill="#ccffcc" stroke="black" d="M110.58,-847.88C110.58,-847.88 39.67,-847.88 39.67,-847.88 36.71,-847.88 33.75,-844.92 33.75,-841.96 33.75,-841.96 33.75,-836.04 33.75,-836.04 33.75,-833.08 36.71,-830.12 39.67,-830.12 39.67,-830.12 110.58,-830.12 110.58,-830.12 113.54,-830.12 116.5,-833.08 116.5,-836.04 116.5,-836.04 116.5,-841.96 116.5,-841.96 116.5,-844.92 113.54,-847.88 110.58,-847.88"/>
<text text-anchor="start" x="41.75" y="-835.33" font-family="Helvetica,sans-Serif" font-size="9.00">checkQuantity.ts</text>
</a>
</g>
</g>
<!-- src/helpers/fetchAPI.ts -->
<g id="node20" class="node">
<title>src/helpers/fetchAPI.ts</title>
<g id="a_node20"><a xlink:href="src/helpers/fetchAPI.ts" xlink:title="fetchAPI.ts">
<path fill="#ccffcc" stroke="black" d="M98.58,-817.88C98.58,-817.88 51.67,-817.88 51.67,-817.88 48.71,-817.88 45.75,-814.92 45.75,-811.96 45.75,-811.96 45.75,-806.04 45.75,-806.04 45.75,-803.08 48.71,-800.12 51.67,-800.12 51.67,-800.12 98.58,-800.12 98.58,-800.12 101.54,-800.12 104.5,-803.08 104.5,-806.04 104.5,-806.04 104.5,-811.96 104.5,-811.96 104.5,-814.92 101.54,-817.88 98.58,-817.88"/>
<text text-anchor="start" x="53.75" y="-805.33" font-family="Helvetica,sans-Serif" font-size="9.00">fetchAPI.ts</text>
</a>
</g>
</g>
<!-- src/helpers/format.ts -->
<g id="node21" class="node">
<title>src/helpers/format.ts</title>
<g id="a_node21"><a xlink:href="src/helpers/format.ts" xlink:title="format.ts">
<path fill="#ccffcc" stroke="black" d="M96.21,-787.88C96.21,-787.88 54.04,-787.88 54.04,-787.88 51.08,-787.88 48.12,-784.92 48.12,-781.96 48.12,-781.96 48.12,-776.04 48.12,-776.04 48.12,-773.08 51.08,-770.12 54.04,-770.12 54.04,-770.12 96.21,-770.12 96.21,-770.12 99.17,-770.12 102.12,-773.08 102.12,-776.04 102.12,-776.04 102.12,-781.96 102.12,-781.96 102.12,-784.92 99.17,-787.88 96.21,-787.88"/>
<text text-anchor="start" x="57.88" y="-775.33" font-family="Helvetica,sans-Serif" font-size="9.00">format.ts</text>
</a>
</g>
</g>
<!-- src/helpers/ga.ts -->
<g id="node22" class="node">
<title>src/helpers/ga.ts</title>
<g id="a_node22"><a xlink:href="src/helpers/ga.ts" xlink:title="ga.ts">
<path fill="#ccffcc" stroke="black" d="M96.21,-757.88C96.21,-757.88 54.04,-757.88 54.04,-757.88 51.08,-757.88 48.12,-754.92 48.12,-751.96 48.12,-751.96 48.12,-746.04 48.12,-746.04 48.12,-743.08 51.08,-740.12 54.04,-740.12 54.04,-740.12 96.21,-740.12 96.21,-740.12 99.17,-740.12 102.12,-743.08 102.12,-746.04 102.12,-746.04 102.12,-751.96 102.12,-751.96 102.12,-754.92 99.17,-757.88 96.21,-757.88"/>
<text text-anchor="start" x="65.38" y="-745.33" font-family="Helvetica,sans-Serif" font-size="9.00">ga.ts</text>
</a>
</g>
</g>
<!-- src/helpers/loadingFlag.ts -->
<g id="node23" class="node">
<title>src/helpers/loadingFlag.ts</title>
<g id="a_node23"><a xlink:href="src/helpers/loadingFlag.ts" xlink:title="loadingFlag.ts">
<path fill="#ccffcc" stroke="black" d="M106.08,-727.88C106.08,-727.88 44.17,-727.88 44.17,-727.88 41.21,-727.88 38.25,-724.92 38.25,-721.96 38.25,-721.96 38.25,-716.04 38.25,-716.04 38.25,-713.08 41.21,-710.12 44.17,-710.12 44.17,-710.12 106.08,-710.12 106.08,-710.12 109.04,-710.12 112,-713.08 112,-716.04 112,-716.04 112,-721.96 112,-721.96 112,-724.92 109.04,-727.88 106.08,-727.88"/>
<text text-anchor="start" x="46.25" y="-715.33" font-family="Helvetica,sans-Serif" font-size="9.00">loadingFlag.ts</text>
</a>
</g>
</g>
<!-- src/helpers/sessionStorage.ts -->
<g id="node24" class="node">
<title>src/helpers/sessionStorage.ts</title>
<g id="a_node24"><a xlink:href="src/helpers/sessionStorage.ts" xlink:title="sessionStorage.ts">
<path fill="#ccffcc" stroke="black" d="M113.58,-697.88C113.58,-697.88 36.67,-697.88 36.67,-697.88 33.71,-697.88 30.75,-694.92 30.75,-691.96 30.75,-691.96 30.75,-686.04 30.75,-686.04 30.75,-683.08 33.71,-680.12 36.67,-680.12 36.67,-680.12 113.58,-680.12 113.58,-680.12 116.54,-680.12 119.5,-683.08 119.5,-686.04 119.5,-686.04 119.5,-691.96 119.5,-691.96 119.5,-694.92 116.54,-697.88 113.58,-697.88"/>
<text text-anchor="start" x="38.75" y="-685.33" font-family="Helvetica,sans-Serif" font-size="9.00">sessionStorage.ts</text>
</a>
</g>
</g>
<!-- src/helpers/xsrf.ts -->
<g id="node25" class="node">
<title>src/helpers/xsrf.ts</title>
<g id="a_node25"><a xlink:href="src/helpers/xsrf.ts" xlink:title="xsrf.ts">
<path fill="#ccffcc" stroke="black" d="M96.21,-667.88C96.21,-667.88 54.04,-667.88 54.04,-667.88 51.08,-667.88 48.12,-664.92 48.12,-661.96 48.12,-661.96 48.12,-656.04 48.12,-656.04 48.12,-653.08 51.08,-650.12 54.04,-650.12 54.04,-650.12 96.21,-650.12 96.21,-650.12 99.17,-650.12 102.12,-653.08 102.12,-656.04 102.12,-656.04 102.12,-661.96 102.12,-661.96 102.12,-664.92 99.17,-667.88 96.21,-667.88"/>
<text text-anchor="start" x="63.5" y="-655.33" font-family="Helvetica,sans-Serif" font-size="9.00">xsrf.ts</text>
</a>
</g>
</g>
<!-- src/main.ts -->
<g id="node26" class="node">
<title>src/main.ts</title>
<g id="a_node26"><a xlink:href="src/main.ts" xlink:title="main.ts">
<path fill="#ddfeff" stroke="black" d="M96.21,-33.88C96.21,-33.88 54.04,-33.88 54.04,-33.88 51.08,-33.88 48.12,-30.92 48.12,-27.96 48.12,-27.96 48.12,-22.04 48.12,-22.04 48.12,-19.08 51.08,-16.12 54.04,-16.12 54.04,-16.12 96.21,-16.12 96.21,-16.12 99.17,-16.12 102.12,-19.08 102.12,-22.04 102.12,-22.04 102.12,-27.96 102.12,-27.96 102.12,-30.92 99.17,-33.88 96.21,-33.88"/>
<text text-anchor="start" x="60.5" y="-21.32" font-family="Helvetica,sans-Serif" font-size="9.00">main.ts</text>
</a>
</g>
</g>
<!-- src/main.ts&#45;&gt;src/App.vue -->
<g id="edge1" class="edge">
<title>src/main.ts&#45;&gt;src/App.vue</title>
<path fill="none" stroke="#000000" stroke-width="2" stroke-opacity="0.200000" d="M102.46,-25C117.41,-25 136.3,-25 152.45,-25"/>
<polygon fill="#000000" fill-opacity="0.200000" stroke="#000000" stroke-width="2" stroke-opacity="0.200000" points="152.1,-27.1 158.1,-25 152.1,-22.9 152.1,-27.1"/>
</g>
<!-- src/main.ts&#45;&gt;src/assets/vip&#45;custom.css -->
<g id="edge2" class="edge">
<title>src/main.ts&#45;&gt;src/assets/vip&#45;custom.css</title>
<path fill="none" stroke="#000000" stroke-width="2" stroke-opacity="0.200000" d="M102.55,-25.42C113.71,-26.95 126,-30.66 134.25,-39 145.47,-50.35 131.53,-62.18 142.25,-74 142.53,-74.3 142.81,-74.6 143.1,-74.9"/>
<polygon fill="#000000" fill-opacity="0.200000" stroke="#000000" stroke-width="2" stroke-opacity="0.200000" points="141.9,-77.18 147.93,-79.19 144.48,-73.86 141.9,-77.18"/>
</g>
<!-- src/main.ts&#45;&gt;src/assets/vip.css -->
<g id="edge3" class="edge">
<title>src/main.ts&#45;&gt;src/assets/vip.css</title>
<path fill="none" stroke="#000000" stroke-width="2" stroke-opacity="0.200000" d="M102.54,-28.58C112.83,-30.67 124.48,-33.94 134.25,-39 138.45,-41.17 138.1,-43.73 142.25,-46 145.46,-47.75 148.93,-49.29 152.48,-50.64"/>
<polygon fill="#000000" fill-opacity="0.200000" stroke="#000000" stroke-width="2" stroke-opacity="0.200000" points="152.43,-53.51 158.78,-53.44 153.77,-49.53 152.43,-53.51"/>
</g>
<!-- src/router/index.ts -->
<g id="node27" class="node">
<title>src/router/index.ts</title>
<g id="a_node27"><a xlink:href="src/router/index.ts" xlink:title="index.ts">
<path fill="#ddfeff" stroke="black" d="M209.33,-157.88C209.33,-157.88 167.17,-157.88 167.17,-157.88 164.21,-157.88 161.25,-154.92 161.25,-151.96 161.25,-151.96 161.25,-146.04 161.25,-146.04 161.25,-143.08 164.21,-140.12 167.17,-140.12 167.17,-140.12 209.33,-140.12 209.33,-140.12 212.29,-140.12 215.25,-143.08 215.25,-146.04 215.25,-146.04 215.25,-151.96 215.25,-151.96 215.25,-154.92 212.29,-157.88 209.33,-157.88"/>
<text text-anchor="start" x="172.5" y="-145.32" font-family="Helvetica,sans-Serif" font-size="9.00">index.ts</text>
</a>
</g>
</g>
<!-- src/main.ts&#45;&gt;src/router/index.ts -->
<g id="edge4" class="edge">
<title>src/main.ts&#45;&gt;src/router/index.ts</title>
<path fill="none" stroke="#000000" stroke-width="2" stroke-opacity="0.200000" d="M102.5,-24.84C113.92,-26.23 126.45,-29.97 134.25,-39 147.09,-53.86 131.11,-110.83 142.25,-127 145.16,-131.22 149.11,-134.66 153.48,-137.46"/>
<polygon fill="#000000" fill-opacity="0.200000" stroke="#000000" stroke-width="2" stroke-opacity="0.200000" points="152.82,-139.58 159.1,-140.59 154.82,-135.89 152.82,-139.58"/>
</g>
<!-- src/stores/loading.ts -->
<g id="node28" class="node">
<title>src/stores/loading.ts</title>
<g id="a_node28"><a xlink:href="src/stores/loading.ts" xlink:title="loading.ts">
<path fill="#ccffcc" stroke="black" d="M97.08,-607.88C97.08,-607.88 53.17,-607.88 53.17,-607.88 50.21,-607.88 47.25,-604.92 47.25,-601.96 47.25,-601.96 47.25,-596.04 47.25,-596.04 47.25,-593.08 50.21,-590.12 53.17,-590.12 53.17,-590.12 97.08,-590.12 97.08,-590.12 100.04,-590.12 103,-593.08 103,-596.04 103,-596.04 103,-601.96 103,-601.96 103,-604.92 100.04,-607.88 97.08,-607.88"/>
<text text-anchor="start" x="55.25" y="-595.33" font-family="Helvetica,sans-Serif" font-size="9.00">loading.ts</text>
</a>
</g>
</g>
<!-- src/stores/passcode.ts -->
<g id="node29" class="node">
<title>src/stores/passcode.ts</title>
<g id="a_node29"><a xlink:href="src/stores/passcode.ts" xlink:title="passcode.ts">
<path fill="#ccffcc" stroke="black" d="M101.58,-577.88C101.58,-577.88 48.67,-577.88 48.67,-577.88 45.71,-577.88 42.75,-574.92 42.75,-571.96 42.75,-571.96 42.75,-566.04 42.75,-566.04 42.75,-563.08 45.71,-560.12 48.67,-560.12 48.67,-560.12 101.58,-560.12 101.58,-560.12 104.54,-560.12 107.5,-563.08 107.5,-566.04 107.5,-566.04 107.5,-571.96 107.5,-571.96 107.5,-574.92 104.54,-577.88 101.58,-577.88"/>
<text text-anchor="start" x="50.75" y="-565.33" font-family="Helvetica,sans-Serif" font-size="9.00">passcode.ts</text>
</a>
</g>
</g>
<!-- src/stores/product.ts -->
<g id="node30" class="node">
<title>src/stores/product.ts</title>
<g id="a_node30"><a xlink:href="src/stores/product.ts" xlink:title="product.ts">
<path fill="#ccffcc" stroke="black" d="M97.08,-547.88C97.08,-547.88 53.17,-547.88 53.17,-547.88 50.21,-547.88 47.25,-544.92 47.25,-541.96 47.25,-541.96 47.25,-536.04 47.25,-536.04 47.25,-533.08 50.21,-530.12 53.17,-530.12 53.17,-530.12 97.08,-530.12 97.08,-530.12 100.04,-530.12 103,-533.08 103,-536.04 103,-536.04 103,-541.96 103,-541.96 103,-544.92 100.04,-547.88 97.08,-547.88"/>
<text text-anchor="start" x="55.25" y="-535.33" font-family="Helvetica,sans-Serif" font-size="9.00">product.ts</text>
</a>
</g>
</g>
<!-- src/stores/productDetail.ts -->
<g id="node31" class="node">
<title>src/stores/productDetail.ts</title>
<g id="a_node31"><a xlink:href="src/stores/productDetail.ts" xlink:title="productDetail.ts">
<path fill="#ccffcc" stroke="black" d="M109.08,-517.88C109.08,-517.88 41.17,-517.88 41.17,-517.88 38.21,-517.88 35.25,-514.92 35.25,-511.96 35.25,-511.96 35.25,-506.04 35.25,-506.04 35.25,-503.08 38.21,-500.12 41.17,-500.12 41.17,-500.12 109.08,-500.12 109.08,-500.12 112.04,-500.12 115,-503.08 115,-506.04 115,-506.04 115,-511.96 115,-511.96 115,-514.92 112.04,-517.88 109.08,-517.88"/>
<text text-anchor="start" x="43.25" y="-505.32" font-family="Helvetica,sans-Serif" font-size="9.00">productDetail.ts</text>
</a>
</g>
</g>
<!-- src/stores/store.ts -->
<g id="node32" class="node">
<title>src/stores/store.ts</title>
<g id="a_node32"><a xlink:href="src/stores/store.ts" xlink:title="store.ts">
<path fill="#ccffcc" stroke="black" d="M96.21,-487.88C96.21,-487.88 54.04,-487.88 54.04,-487.88 51.08,-487.88 48.12,-484.92 48.12,-481.96 48.12,-481.96 48.12,-476.04 48.12,-476.04 48.12,-473.08 51.08,-470.12 54.04,-470.12 54.04,-470.12 96.21,-470.12 96.21,-470.12 99.17,-470.12 102.12,-473.08 102.12,-476.04 102.12,-476.04 102.12,-481.96 102.12,-481.96 102.12,-484.92 99.17,-487.88 96.21,-487.88"/>
<text text-anchor="start" x="60.5" y="-475.32" font-family="Helvetica,sans-Serif" font-size="9.00">store.ts</text>
</a>
</g>
</g>
<!-- src/stores/user.ts -->
<g id="node33" class="node">
<title>src/stores/user.ts</title>
<g id="a_node33"><a xlink:href="src/stores/user.ts" xlink:title="user.ts">
<path fill="#ccffcc" stroke="black" d="M96.21,-457.88C96.21,-457.88 54.04,-457.88 54.04,-457.88 51.08,-457.88 48.12,-454.92 48.12,-451.96 48.12,-451.96 48.12,-446.04 48.12,-446.04 48.12,-443.08 51.08,-440.12 54.04,-440.12 54.04,-440.12 96.21,-440.12 96.21,-440.12 99.17,-440.12 102.12,-443.08 102.12,-446.04 102.12,-446.04 102.12,-451.96 102.12,-451.96 102.12,-454.92 99.17,-457.88 96.21,-457.88"/>
<text text-anchor="start" x="61.62" y="-445.32" font-family="Helvetica,sans-Serif" font-size="9.00">user.ts</text>
</a>
</g>
</g>
<!-- src/types/ApiData.ts -->
<g id="node34" class="node">
<title>src/types/ApiData.ts</title>
<g id="a_node34"><a xlink:href="src/types/ApiData.ts" xlink:title="ApiData.ts">
<path fill="#ccffcc" stroke="black" d="M98.21,-397.88C98.21,-397.88 52.04,-397.88 52.04,-397.88 49.08,-397.88 46.12,-394.92 46.12,-391.96 46.12,-391.96 46.12,-386.04 46.12,-386.04 46.12,-383.08 49.08,-380.12 52.04,-380.12 52.04,-380.12 98.21,-380.12 98.21,-380.12 101.17,-380.12 104.12,-383.08 104.12,-386.04 104.12,-386.04 104.12,-391.96 104.12,-391.96 104.12,-394.92 101.17,-397.88 98.21,-397.88"/>
<text text-anchor="start" x="54.12" y="-385.32" font-family="Helvetica,sans-Serif" font-size="9.00">ApiData.ts</text>
</a>
</g>
</g>
<!-- src/types/Button.ts -->
<g id="node35" class="node">
<title>src/types/Button.ts</title>
<g id="a_node35"><a xlink:href="src/types/Button.ts" xlink:title="Button.ts">
<path fill="#ccffcc" stroke="black" d="M96.21,-367.88C96.21,-367.88 54.04,-367.88 54.04,-367.88 51.08,-367.88 48.12,-364.92 48.12,-361.96 48.12,-361.96 48.12,-356.04 48.12,-356.04 48.12,-353.08 51.08,-350.12 54.04,-350.12 54.04,-350.12 96.21,-350.12 96.21,-350.12 99.17,-350.12 102.12,-353.08 102.12,-356.04 102.12,-356.04 102.12,-361.96 102.12,-361.96 102.12,-364.92 99.17,-367.88 96.21,-367.88"/>
<text text-anchor="start" x="57.5" y="-355.32" font-family="Helvetica,sans-Serif" font-size="9.00">Button.ts</text>
</a>
</g>
</g>
<!-- src/types/Product.ts -->
<g id="node36" class="node">
<title>src/types/Product.ts</title>
<g id="a_node36"><a xlink:href="src/types/Product.ts" xlink:title="Product.ts">
<path fill="#ccffcc" stroke="black" d="M97.46,-337.88C97.46,-337.88 52.79,-337.88 52.79,-337.88 49.83,-337.88 46.88,-334.92 46.88,-331.96 46.88,-331.96 46.88,-326.04 46.88,-326.04 46.88,-323.08 49.83,-320.12 52.79,-320.12 52.79,-320.12 97.46,-320.12 97.46,-320.12 100.42,-320.12 103.38,-323.08 103.38,-326.04 103.38,-326.04 103.38,-331.96 103.38,-331.96 103.38,-334.92 100.42,-337.88 97.46,-337.88"/>
<text text-anchor="start" x="54.88" y="-325.32" font-family="Helvetica,sans-Serif" font-size="9.00">Product.ts</text>
</a>
</g>
</g>
<!-- src/types/ProductDetail.ts -->
<g id="node37" class="node">
<title>src/types/ProductDetail.ts</title>
<g id="a_node37"><a xlink:href="src/types/ProductDetail.ts" xlink:title="ProductDetail.ts">
<path fill="#ccffcc" stroke="black" d="M109.46,-307.88C109.46,-307.88 40.79,-307.88 40.79,-307.88 37.83,-307.88 34.88,-304.92 34.88,-301.96 34.88,-301.96 34.88,-296.04 34.88,-296.04 34.88,-293.08 37.83,-290.12 40.79,-290.12 40.79,-290.12 109.46,-290.12 109.46,-290.12 112.42,-290.12 115.38,-293.08 115.38,-296.04 115.38,-296.04 115.38,-301.96 115.38,-301.96 115.38,-304.92 112.42,-307.88 109.46,-307.88"/>
<text text-anchor="start" x="42.88" y="-295.32" font-family="Helvetica,sans-Serif" font-size="9.00">ProductDetail.ts</text>
</a>
</g>
</g>
<!-- src/types/Slider.ts -->
<g id="node38" class="node">
<title>src/types/Slider.ts</title>
<g id="a_node38"><a xlink:href="src/types/Slider.ts" xlink:title="Slider.ts">
<path fill="#ccffcc" stroke="black" d="M96.21,-277.88C96.21,-277.88 54.04,-277.88 54.04,-277.88 51.08,-277.88 48.12,-274.92 48.12,-271.96 48.12,-271.96 48.12,-266.04 48.12,-266.04 48.12,-263.08 51.08,-260.12 54.04,-260.12 54.04,-260.12 96.21,-260.12 96.21,-260.12 99.17,-260.12 102.12,-263.08 102.12,-266.04 102.12,-266.04 102.12,-271.96 102.12,-271.96 102.12,-274.92 99.17,-277.88 96.21,-277.88"/>
<text text-anchor="start" x="58.62" y="-265.32" font-family="Helvetica,sans-Serif" font-size="9.00">Slider.ts</text>
</a>
</g>
</g>
<!-- src/types/Utils.ts -->
<g id="node39" class="node">
<title>src/types/Utils.ts</title>
<g id="a_node39"><a xlink:href="src/types/Utils.ts" xlink:title="Utils.ts">
<path fill="#ccffcc" stroke="black" d="M96.21,-247.88C96.21,-247.88 54.04,-247.88 54.04,-247.88 51.08,-247.88 48.12,-244.92 48.12,-241.96 48.12,-241.96 48.12,-236.04 48.12,-236.04 48.12,-233.08 51.08,-230.12 54.04,-230.12 54.04,-230.12 96.21,-230.12 96.21,-230.12 99.17,-230.12 102.12,-233.08 102.12,-236.04 102.12,-236.04 102.12,-241.96 102.12,-241.96 102.12,-244.92 99.17,-247.88 96.21,-247.88"/>
<text text-anchor="start" x="61.62" y="-235.32" font-family="Helvetica,sans-Serif" font-size="9.00">Utils.ts</text>
</a>
</g>
</g>
<!-- src/views/Completed.vue -->
<g id="node40" class="node">
<title>src/views/Completed.vue</title>
<g id="a_node40"><a xlink:href="src/views/Completed.vue" xlink:title="no&#45;orphans">
<path fill="#ccffcc" stroke="orange" d="M108.33,-187.88C108.33,-187.88 41.92,-187.88 41.92,-187.88 38.96,-187.88 36,-184.92 36,-181.96 36,-181.96 36,-176.04 36,-176.04 36,-173.08 38.96,-170.12 41.92,-170.12 41.92,-170.12 108.33,-170.12 108.33,-170.12 111.29,-170.12 114.25,-173.08 114.25,-176.04 114.25,-176.04 114.25,-181.96 114.25,-181.96 114.25,-184.92 111.29,-187.88 108.33,-187.88"/>
<text text-anchor="start" x="44" y="-175.32" font-family="Helvetica,sans-Serif" font-size="9.00" fill="orange">Completed.vue</text>
</a>
</g>
</g>
<!-- src/views/Error.vue -->
<g id="node41" class="node">
<title>src/views/Error.vue</title>
<g id="a_node41"><a xlink:href="src/views/Error.vue" xlink:title="no&#45;orphans">
<path fill="#ccffcc" stroke="orange" d="M96.21,-157.88C96.21,-157.88 54.04,-157.88 54.04,-157.88 51.08,-157.88 48.12,-154.92 48.12,-151.96 48.12,-151.96 48.12,-146.04 48.12,-146.04 48.12,-143.08 51.08,-140.12 54.04,-140.12 54.04,-140.12 96.21,-140.12 96.21,-140.12 99.17,-140.12 102.12,-143.08 102.12,-146.04 102.12,-146.04 102.12,-151.96 102.12,-151.96 102.12,-154.92 99.17,-157.88 96.21,-157.88"/>
<text text-anchor="start" x="56.38" y="-145.32" font-family="Helvetica,sans-Serif" font-size="9.00" fill="orange">Error.vue</text>
</a>
</g>
</g>
<!-- src/views/Home.vue -->
<g id="node42" class="node">
<title>src/views/Home.vue</title>
<g id="a_node42"><a xlink:href="src/views/Home.vue" xlink:title="no&#45;orphans">
<path fill="#ccffcc" stroke="orange" d="M98.21,-127.88C98.21,-127.88 52.04,-127.88 52.04,-127.88 49.08,-127.88 46.12,-124.92 46.12,-121.96 46.12,-121.96 46.12,-116.04 46.12,-116.04 46.12,-113.08 49.08,-110.12 52.04,-110.12 52.04,-110.12 98.21,-110.12 98.21,-110.12 101.17,-110.12 104.12,-113.08 104.12,-116.04 104.12,-116.04 104.12,-121.96 104.12,-121.96 104.12,-124.92 101.17,-127.88 98.21,-127.88"/>
<text text-anchor="start" x="54.12" y="-115.33" font-family="Helvetica,sans-Serif" font-size="9.00" fill="orange">Home.vue</text>
</a>
</g>
</g>
<!-- src/views/Invalid.vue -->
<g id="node43" class="node">
<title>src/views/Invalid.vue</title>
<g id="a_node43"><a xlink:href="src/views/Invalid.vue" xlink:title="no&#45;orphans">
<path fill="#ccffcc" stroke="orange" d="M99.33,-97.88C99.33,-97.88 50.92,-97.88 50.92,-97.88 47.96,-97.88 45,-94.92 45,-91.96 45,-91.96 45,-86.04 45,-86.04 45,-83.08 47.96,-80.12 50.92,-80.12 50.92,-80.12 99.33,-80.12 99.33,-80.12 102.29,-80.12 105.25,-83.08 105.25,-86.04 105.25,-86.04 105.25,-91.96 105.25,-91.96 105.25,-94.92 102.29,-97.88 99.33,-97.88"/>
<text text-anchor="start" x="53" y="-85.33" font-family="Helvetica,sans-Serif" font-size="9.00" fill="orange">Invalid.vue</text>
</a>
</g>
</g>
<!-- src/views/Passcode.vue -->
<g id="node44" class="node">
<title>src/views/Passcode.vue</title>
<g id="a_node44"><a xlink:href="src/views/Passcode.vue" xlink:title="no&#45;orphans">
<path fill="#ccffcc" stroke="orange" d="M106.08,-67.88C106.08,-67.88 44.17,-67.88 44.17,-67.88 41.21,-67.88 38.25,-64.92 38.25,-61.96 38.25,-61.96 38.25,-56.04 38.25,-56.04 38.25,-53.08 41.21,-50.12 44.17,-50.12 44.17,-50.12 106.08,-50.12 106.08,-50.12 109.04,-50.12 112,-53.08 112,-56.04 112,-56.04 112,-61.96 112,-61.96 112,-64.92 109.04,-67.88 106.08,-67.88"/>
<text text-anchor="start" x="46.25" y="-55.33" font-family="Helvetica,sans-Serif" font-size="9.00" fill="orange">Passcode.vue</text>
</a>
</g>
</g>
</g>
</svg>
